_Griffith_Gothic-Condensed_Black_WebTT.ufo
<glyph name="quotedbl" format="1">
  <advance width="731.136"/>
  <unicode hex="0022"/>
  <outline>
    <contour>
      <point x="57" y="1475" type="line"/>
      <point x="319" y="1475" type="line"/>
      <point x="254" y="909" type="line"/>
      <point x="125" y="909" type="line"/>
    </contour>
    <contour>
      <point x="408" y="1475" type="line"/>
      <point x="674" y="1475" type="line"/>
      <point x="604" y="909" type="line"/>
      <point x="477" y="909" type="line"/>
    </contour>
  </outline>
</glyph>
<glyph name="numbersign" format="1">
  <advance width="1056.768"/>
  <unicode hex="0023"/>
  <outline>
    <contour>
      <point x="1022" y="1155" type="line"/>
      <point x="1022" y="907" type="line"/>
      <point x="817" y="907" type="line"/>
      <point x="772" y="580" type="line"/>
      <point x="965" y="580" type="line"/>
      <point x="965" y="332" type="line"/>
      <point x="737" y="332" type="line"/>
      <point x="694" y="0" type="line"/>
      <point x="571" y="0" type="line"/>
      <point x="614" y="332" type="line"/>
      <point x="342" y="332" type="line"/>
      <point x="299" y="0" type="line"/>
      <point x="174" y="0" type="line"/>
      <point x="219" y="332" type="line"/>
      <point x="47" y="332" type="line"/>
      <point x="47" y="580" type="line"/>
      <point x="252" y="580" type="line"/>
      <point x="297" y="907" type="line"/>
      <point x="102" y="907" type="line"/>
      <point x="102" y="1155" type="line"/>
      <point x="332" y="1155" type="line"/>
      <point x="375" y="1475" type="line"/>
      <point x="498" y="1475" type="line"/>
      <point x="455" y="1155" type="line"/>
      <point x="727" y="1155" type="line"/>
      <point x="770" y="1475" type="line"/>
      <point x="893" y="1475" type="line"/>
      <point x="850" y="1155" type="line"/>
    </contour>
    <contour>
      <point x="653" y="575" type="line"/>
      <point x="698" y="911" type="line"/>
      <point x="418" y="911" type="line"/>
      <point x="371" y="575" type="line"/>
    </contour>
  </outline>
</glyph>
<glyph name="percent" format="1">
  <advance width="1443.84"/>
  <unicode hex="0025"/>
  <outline>
    <contour>
      <point x="354" y="1489" type="qcurve" smooth="yes"/>
      <point x="493.552238806" y="1489.0"/>
      <point x="674.0" y="1285.65671642"/>
      <point x="674" y="1067" type="qcurve" smooth="yes"/>
      <point x="674.0" y="857.298507463"/>
      <point x="490.059701493" y="647.0"/>
      <point x="352" y="647" type="qcurve" smooth="yes"/>
      <point x="213.194029851" y="647.0"/>
      <point x="37.0" y="852.820895522"/>
      <point x="37" y="1067" type="qcurve" smooth="yes"/>
      <point x="37.0" y="1281.17910448"/>
      <point x="216.686567164" y="1489.0"/>
    </contour>
    <contour>
      <point x="352" y="834" type="qcurve" smooth="yes"/>
      <point x="411.701492537" y="834.0"/>
      <point x="461.0" y="955.298507463"/>
      <point x="461" y="1065" type="qcurve" smooth="yes"/>
      <point x="461.0" y="1179.92537313"/>
      <point x="411.701492537" y="1298.0"/>
      <point x="352" y="1298" type="qcurve" smooth="yes"/>
      <point x="292.298507463" y="1298.0"/>
      <point x="248.0" y="1180.94029851"/>
      <point x="248" y="1069" type="qcurve" smooth="yes"/>
      <point x="248.0" y="959.298507463"/>
      <point x="292.298507463" y="834.0"/>
    </contour>
    <contour>
      <point x="1087" y="827" type="qcurve" smooth="yes"/>
      <point x="1226.55223881" y="827.0"/>
      <point x="1407.0" y="625.432835821"/>
      <point x="1407" y="412" type="qcurve" smooth="yes"/>
      <point x="1407.0" y="197.820895522"/>
      <point x="1223.05970149" y="-14.0"/>
      <point x="1085" y="-14" type="qcurve" smooth="yes"/>
      <point x="946.194029851" y="-14.0"/>
      <point x="770.0" y="193.343283582"/>
      <point x="770" y="412" type="qcurve" smooth="yes"/>
      <point x="770.0" y="620.955223881"/>
      <point x="949.686567164" y="827.0"/>
    </contour>
    <contour>
      <point x="1085" y="176" type="qcurve" smooth="yes"/>
      <point x="1144.70149254" y="176.0"/>
      <point x="1196.0" y="298.059701493"/>
      <point x="1196" y="410" type="qcurve" smooth="yes"/>
      <point x="1196.0" y="522.686567164"/>
      <point x="1146.19402985" y="641.0"/>
      <point x="1085" y="641" type="qcurve" smooth="yes"/>
      <point x="1027.53731343" y="641.0"/>
      <point x="983.0" y="523.701492537"/>
      <point x="983" y="414" type="qcurve" smooth="yes"/>
      <point x="983.0" y="302.059701493"/>
      <point x="1027.53731343" y="176.0"/>
    </contour>
    <contour>
      <point x="981" y="1475" type="line"/>
      <point x="1206" y="1473" type="line"/>
      <point x="774" y="711" type="line"/>
      <point x="465" y="4" type="line"/>
      <point x="238" y="4" type="line"/>
      <point x="670" y="768" type="line"/>
    </contour>
  </outline>
</glyph>
<glyph name="plus" format="1">
  <advance width="974.848"/>
  <unicode hex="002B"/>
  <outline>
    <contour>
      <point x="920" y="840" type="line"/>
      <point x="920" y="614" type="line"/>
      <point x="608" y="614" type="line"/>
      <point x="608" y="227" type="line"/>
      <point x="367" y="227" type="line"/>
      <point x="367" y="614" type="line"/>
      <point x="55" y="614" type="line"/>
      <point x="55" y="840" type="line"/>
      <point x="367" y="840" type="line"/>
      <point x="367" y="1227" type="line"/>
      <point x="608" y="1227" type="line"/>
      <point x="608" y="840" type="line"/>
    </contour>
  </outline>
</glyph>
<glyph name="hyphen" format="1">
  <advance width="550.912"/>
  <unicode hex="002D"/>
  <unicode hex="2010"/>
  <unicode hex="2011"/>
  <outline>
    <contour>
      <point x="504" y="709" type="line"/>
      <point x="504" y="473" type="line"/>
      <point x="53" y="473" type="line"/>
      <point x="53" y="709" type="line"/>
    </contour>
  </outline>
</glyph>
<glyph name="zero" format="1">
  <advance width="1013.76"/>
  <unicode hex="0030"/>
  <outline>
    <contour>
      <point x="958" y="881" type="qcurve" smooth="yes"/>
      <point x="958" y="594" type="line" smooth="yes"/>
      <point x="958.0" y="283.552238806"/>
      <point x="708.985074627" y="-25.0"/>
      <point x="506" y="-25" type="qcurve" smooth="yes"/>
      <point x="302.268656716" y="-25.0"/>
      <point x="55.0" y="282.059701493"/>
      <point x="55" y="594" type="qcurve" smooth="yes"/>
      <point x="55" y="881" type="line" smooth="yes"/>
      <point x="55.0" y="1190.70149254"/>
      <point x="302.268656716" y="1499.0"/>
      <point x="506" y="1499" type="qcurve" smooth="yes"/>
      <point x="708.985074627" y="1499.0"/>
      <point x="958.0" y="1190.70149254"/>
    </contour>
    <contour>
      <point x="506" y="197" type="qcurve" smooth="yes"/>
      <point x="596.298507463" y="197.0"/>
      <point x="672.0" y="395.597014925"/>
      <point x="672" y="565" type="qcurve" smooth="yes"/>
      <point x="672" y="909" type="line" smooth="yes"/>
      <point x="672.0" y="1077.65671642"/>
      <point x="596.298507463" y="1278.0"/>
      <point x="506" y="1278" type="qcurve" smooth="yes"/>
      <point x="417.194029851" y="1278.0"/>
      <point x="340.0" y="1079.14925373"/>
      <point x="340" y="909" type="qcurve" smooth="yes"/>
      <point x="340" y="565" type="line" smooth="yes"/>
      <point x="340.0" y="397.089552239"/>
      <point x="417.194029851" y="197.0"/>
    </contour>
  </outline>
</glyph>
<glyph name="one" format="1">
  <advance width="712.704"/>
  <unicode hex="0031"/>
  <outline>
    <contour>
      <point x="688" y="186" type="line"/>
      <point x="688" y="0" type="line"/>
      <point x="61" y="0" type="line"/>
      <point x="61" y="186" type="line"/>
      <point x="244" y="186" type="line"/>
      <point x="244" y="1288" type="line"/>
      <point x="43" y="1288" type="line"/>
      <point x="43" y="1475" type="line"/>
      <point x="520" y="1475" type="line"/>
      <point x="520" y="186" type="line"/>
    </contour>
  </outline>
</glyph>
<glyph name="two" format="1">
  <advance width="927.744"/>
  <unicode hex="0032"/>
  <outline>
    <contour>
      <point x="874" y="225" type="line"/>
      <point x="874" y="0" type="line"/>
      <point x="53" y="0" type="line"/>
      <point x="53" y="182" type="line"/>
      <point x="94.7910447761" y="336.47761194"/>
      <point x="244.805970149" y="569.507462687"/>
      <point x="406" y="721" type="qcurve" smooth="yes"/>
      <point x="506.746268657" y="817.268656716"/>
      <point x="590.0" y="972.791044776"/>
      <point x="590" y="1081" type="qcurve" smooth="yes"/>
      <point x="590.0" y="1168.31343284"/>
      <point x="527.179104478" y="1270.0"/>
      <point x="463" y="1270" type="qcurve" smooth="yes"/>
      <point x="398.820895522" y="1270.0"/>
      <point x="313.089552239" y="1152.26865672"/>
      <point x="281" y="1006" type="qcurve"/>
      <point x="41" y="1085" type="line"/>
      <point x="91.7462686567" y="1308.13432836"/>
      <point x="304.074626866" y="1499.0"/>
      <point x="469" y="1499" type="qcurve" smooth="yes"/>
      <point x="669.0" y="1499.0"/>
      <point x="866.0" y="1266.07462687"/>
      <point x="866" y="1081" type="qcurve" smooth="yes"/>
      <point x="866.0" y="894.432835821"/>
      <point x="694.686567164" y="661.746268657"/>
      <point x="582" y="561" type="qcurve" smooth="yes"/>
      <point x="479.014925373" y="469.208955224"/>
      <point x="366.626865672" y="306.343283582"/>
      <point x="342" y="225" type="qcurve"/>
    </contour>
  </outline>
</glyph>
<glyph name="three" format="1">
  <advance width="899.072"/>
  <unicode hex="0033"/>
  <outline>
    <contour>
      <point x="545" y="825" type="line"/>
      <point x="680.820895522" y="827.985074627"/>
      <point x="860.0" y="663.970149254"/>
      <point x="860" y="508" type="qcurve" smooth="yes"/>
      <point x="860.0" y="266.208955224"/>
      <point x="420.746268657" y="-10.9850746269"/>
      <point x="20" y="-8" type="qcurve"/>
      <point x="20" y="217" type="line"/>
      <point x="312.537313433" y="221.47761194"/>
      <point x="571.0" y="381.641791045"/>
      <point x="571" y="510" type="qcurve" smooth="yes"/>
      <point x="571.0" y="594.328358209"/>
      <point x="494.656716418" y="674.0"/>
      <point x="426" y="674" type="qcurve" smooth="yes"/>
      <point x="387.940298507" y="674.0"/>
      <point x="311.313432836" y="657.179104478"/>
      <point x="274" y="643" type="qcurve"/>
      <point x="209" y="834" type="line"/>
      <point x="369.447761194" y="902.656716418"/>
      <point x="520.0" y="1046.41791045"/>
      <point x="520" y="1130" type="qcurve" smooth="yes"/>
      <point x="520.0" y="1200.89552239"/>
      <point x="456.223880597" y="1276.0"/>
      <point x="401" y="1276" type="qcurve" smooth="yes"/>
      <point x="343.537313433" y="1276.0"/>
      <point x="244.014925373" y="1192.8358209"/>
      <point x="197" y="1110" type="qcurve"/>
      <point x="41" y="1251" type="line"/>
      <point x="102.194029851" y="1361.44776119"/>
      <point x="300.492537313" y="1503.0"/>
      <point x="449" y="1503" type="qcurve" smooth="yes"/>
      <point x="615.417910448" y="1503.0"/>
      <point x="795.0" y="1341.04477612"/>
      <point x="795" y="1200" type="qcurve" smooth="yes"/>
      <point x="795.0" y="1065.67164179"/>
      <point x="648.731343284" y="887.71641791"/>
      <point x="545" y="831" type="qcurve"/>
    </contour>
  </outline>
</glyph>
<glyph name="four" format="1">
  <advance width="964.608"/>
  <unicode hex="0034"/>
  <outline>
    <contour>
      <point x="930" y="539" type="line"/>
      <point x="930" y="379" type="line"/>
      <point x="799" y="379" type="line"/>
      <point x="799" y="0" type="line"/>
      <point x="524" y="0" type="line"/>
      <point x="524" y="379" type="line"/>
      <point x="39" y="379" type="line"/>
      <point x="39" y="569" type="line"/>
      <point x="461" y="1475" type="line"/>
      <point x="799" y="1475" type="line"/>
      <point x="799" y="539" type="line"/>
    </contour>
    <contour>
      <point x="219" y="539" type="line"/>
      <point x="524" y="539" type="line"/>
      <point x="524" y="1192" type="line"/>
      <point x="510" y="1192" type="line"/>
      <point x="219" y="555" type="line"/>
    </contour>
  </outline>
</glyph>
<glyph name="five" format="1">
  <advance width="944.128"/>
  <unicode hex="0035"/>
  <outline>
    <contour>
      <point x="899" y="537" type="qcurve" smooth="yes"/>
      <point x="899" y="508" type="line" smooth="yes"/>
      <point x="899.0" y="222.179104478"/>
      <point x="626.955223881" y="-20.0"/>
      <point x="418" y="-20" type="qcurve" smooth="yes"/>
      <point x="301.582089552" y="-20.0"/>
      <point x="131.746268657" y="26.776119403"/>
      <point x="31" y="82" type="qcurve"/>
      <point x="125" y="297" type="line"/>
      <point x="209.328358209" y="249.23880597"/>
      <point x="326.343283582" y="213.0"/>
      <point x="395" y="213" type="qcurve" smooth="yes"/>
      <point x="500.970149254" y="213.0"/>
      <point x="608.0" y="358.47761194"/>
      <point x="608" y="504" type="qcurve" smooth="yes"/>
      <point x="608" y="514" type="line" smooth="yes"/>
      <point x="608.0" y="645.343283582"/>
      <point x="538.134328358" y="768.0"/>
      <point x="465" y="768" type="qcurve" smooth="yes"/>
      <point x="411.268656716" y="768.0"/>
      <point x="329.119402985" y="706.567164179"/>
      <point x="303" y="670" type="qcurve"/>
      <point x="96" y="670" type="line"/>
      <point x="147" y="1475" type="line"/>
      <point x="834" y="1475" type="line"/>
      <point x="834" y="1233" type="line"/>
      <point x="344" y="1233" type="line"/>
      <point x="315" y="854" type="line"/>
      <point x="324" y="854" type="line"/>
      <point x="356.089552239" y="901.76119403"/>
      <point x="471.179104478" y="973.0"/>
      <point x="557" y="973" type="qcurve" smooth="yes"/>
      <point x="709.985074627" y="973.0"/>
      <point x="899.0" y="766.104477612"/>
    </contour>
  </outline>
</glyph>
<glyph name="eight" format="1">
  <advance width="978.944"/>
  <unicode hex="0038"/>
  <outline>
    <contour>
      <point x="717" y="784" type="line"/>
      <point x="793.119402985" y="754.895522388"/>
      <point x="938.0" y="572.925373134"/>
      <point x="938" y="408" type="qcurve" smooth="yes"/>
      <point x="938.0" y="193.820895522"/>
      <point x="669.089552239" y="-25.0"/>
      <point x="487" y="-25" type="qcurve" smooth="yes"/>
      <point x="305.656716418" y="-25.0"/>
      <point x="41.0" y="191.820895522"/>
      <point x="41" y="406" type="qcurve" smooth="yes"/>
      <point x="41.0" y="572.417910448"/>
      <point x="183.373134328" y="754.388059701"/>
      <point x="258" y="782" type="qcurve"/>
      <point x="258" y="791" type="line"/>
      <point x="192.328358209" y="820.850746269"/>
      <point x="72.0" y="972.686567164"/>
      <point x="72" y="1110" type="qcurve" smooth="yes"/>
      <point x="72.0" y="1287.6119403"/>
      <point x="307.149253731" y="1499.0"/>
      <point x="487" y="1499" type="qcurve" smooth="yes"/>
      <point x="669.089552239" y="1499.0"/>
      <point x="905.0" y="1291.6119403"/>
      <point x="905" y="1114" type="qcurve" smooth="yes"/>
      <point x="905.0" y="979.671641791"/>
      <point x="781.179104478" y="820.850746269"/>
      <point x="717" y="791" type="qcurve"/>
    </contour>
    <contour>
      <point x="485" y="174" type="qcurve" smooth="yes"/>
      <point x="569.328358209" y="174.0"/>
      <point x="657.0" y="305.611940299"/>
      <point x="657" y="428" type="qcurve" smooth="yes"/>
      <point x="657.0" y="553.373134328"/>
      <point x="567.835820896" y="692.0"/>
      <point x="485" y="692" type="qcurve" smooth="yes"/>
      <point x="402.910447761" y="692.0"/>
      <point x="319.0" y="555.880597015"/>
      <point x="319" y="432" type="qcurve" smooth="yes"/>
      <point x="319.0" y="309.611940299"/>
      <point x="399.925373134" y="174.0"/>
    </contour>
    <contour>
      <point x="487" y="868" type="qcurve" smooth="yes"/>
      <point x="560.880597015" y="868.0"/>
      <point x="637.0" y="973.298507463"/>
      <point x="637" y="1083" type="qcurve" smooth="yes"/>
      <point x="637.0" y="1191.95522388"/>
      <point x="565.358208955" y="1300.0"/>
      <point x="487" y="1300" type="qcurve" smooth="yes"/>
      <point x="409.388059701" y="1300.0"/>
      <point x="342.0" y="1186.49253731"/>
      <point x="342" y="1085" type="qcurve" smooth="yes"/>
      <point x="342.0" y="982.76119403"/>
      <point x="413.865671642" y="868.0"/>
    </contour>
  </outline>
</glyph>
<glyph name="less" format="1">
  <advance width="972.8"/>
  <unicode hex="003C"/>
  <outline>
    <contour>
      <point x="905" y="453" type="line"/>
      <point x="905" y="186" type="line"/>
      <point x="59" y="602" type="line"/>
      <point x="59" y="844" type="line"/>
      <point x="905" y="1262" type="line"/>
      <point x="905" y="995" type="line"/>
      <point x="301" y="723" type="line"/>
    </contour>
  </outline>
</glyph>
<glyph name="greater" format="1">
  <advance width="972.8"/>
  <unicode hex="003E"/>
  <outline>
    <contour>
      <point x="913" y="848" type="line"/>
      <point x="913" y="606" type="line"/>
      <point x="68" y="190" type="line"/>
      <point x="68" y="457" type="line"/>
      <point x="674" y="727" type="line"/>
      <point x="68" y="999" type="line"/>
      <point x="68" y="1266" type="line"/>
    </contour>
  </outline>
</glyph>
<glyph name="question" format="1">
  <advance width="854.016"/>
  <unicode hex="003F"/>
  <outline>
    <contour>
      <point x="434" y="1499" type="qcurve" smooth="yes"/>
      <point x="617.582089552" y="1499.0"/>
      <point x="811.0" y="1291.13432836"/>
      <point x="811" y="1118" type="qcurve" smooth="yes"/>
      <point x="811.0" y="973.223880597"/>
      <point x="704.776119403" y="801.059701493"/>
      <point x="610" y="713" type="qcurve" smooth="yes"/>
      <point x="538.358208955" y="645.835820896"/>
      <point x="476.462686567" y="534.776119403"/>
      <point x="469" y="440" type="qcurve"/>
      <point x="309" y="440" type="line"/>
      <point x="284.373134328" y="594.47761194"/>
      <point x="337.223880597" y="770.268656716"/>
      <point x="432" y="874" type="qcurve" smooth="yes"/>
      <point x="488.71641791" y="935.194029851"/>
      <point x="537.0" y="1043.34328358"/>
      <point x="537" y="1112" type="qcurve" smooth="yes"/>
      <point x="537.0" y="1191.85074627"/>
      <point x="477.731343284" y="1280.0"/>
      <point x="424" y="1280" type="qcurve" smooth="yes"/>
      <point x="364.298507463" y="1280.0"/>
      <point x="285.582089552" y="1175.55223881"/>
      <point x="252" y="1036" type="qcurve"/>
      <point x="18" y="1112" type="line"/>
      <point x="55.3134328358" y="1298.56716418"/>
      <point x="248.925373134" y="1499.0"/>
    </contour>
    <contour>
      <point x="395" y="291" type="qcurve" smooth="yes"/>
      <point x="459.179104478" y="291.0"/>
      <point x="547.0" y="203.179104478"/>
      <point x="547" y="139" type="qcurve" smooth="yes"/>
      <point x="547.0" y="73.328358209"/>
      <point x="459.179104478" y="-14.0"/>
      <point x="395" y="-14" type="qcurve" smooth="yes"/>
      <point x="329.328358209" y="-14.0"/>
      <point x="242.0" y="73.328358209"/>
      <point x="242" y="139" type="qcurve" smooth="yes"/>
      <point x="242.0" y="203.179104478"/>
      <point x="329.328358209" y="291.0"/>
    </contour>
  </outline>
</glyph>
<glyph name="F" format="1">
  <advance width="841.728"/>
  <unicode hex="0046"/>
  <outline>
    <contour>
      <point x="811" y="1475" type="line"/>
      <point x="811" y="1237" type="line"/>
      <point x="377" y="1237" type="line"/>
      <point x="377" y="836" type="line"/>
      <point x="702" y="836" type="line"/>
      <point x="702" y="606" type="line"/>
      <point x="377" y="606" type="line"/>
      <point x="377" y="0" type="line"/>
      <point x="86" y="0" type="line"/>
      <point x="86" y="1475" type="line"/>
    </contour>
  </outline>
</glyph>
<glyph name="I" format="1">
  <advance width="718.848"/>
  <unicode hex="0049"/>
  <outline>
    <contour>
      <point x="662" y="102" type="line"/>
      <point x="662" y="0" type="line"/>
      <point x="59" y="0" type="line"/>
      <point x="59" y="102" type="line"/>
      <point x="215" y="102" type="line"/>
      <point x="215" y="1372" type="line"/>
      <point x="59" y="1372" type="line"/>
      <point x="59" y="1475" type="line"/>
      <point x="662" y="1475" type="line"/>
      <point x="662" y="1372" type="line"/>
      <point x="504" y="1372" type="line"/>
      <point x="504" y="102" type="line"/>
    </contour>
  </outline>
</glyph>
<glyph name="P" format="1">
  <advance width="952.32"/>
  <unicode hex="0050"/>
  <outline>
    <contour>
      <point x="442" y="1475" type="line" smooth="yes"/>
      <point x="665.134328358" y="1475.0"/>
      <point x="924.0" y="1248.62686567"/>
      <point x="924" y="1024" type="qcurve" smooth="yes"/>
      <point x="924.0" y="790.417910448"/>
      <point x="666.626865672" y="549.0"/>
      <point x="442" y="549" type="qcurve" smooth="yes"/>
      <point x="377" y="549" type="line"/>
      <point x="377" y="0" type="line"/>
      <point x="86" y="0" type="line"/>
      <point x="86" y="1475" type="line"/>
    </contour>
    <contour>
      <point x="446" y="770" type="line" smooth="yes"/>
      <point x="546.0" y="770.0"/>
      <point x="643.0" y="898.597014925"/>
      <point x="643" y="1018" type="qcurve" smooth="yes"/>
      <point x="643.0" y="1134.41791045"/>
      <point x="543.492537313" y="1257.0"/>
      <point x="442" y="1257" type="qcurve" smooth="yes"/>
      <point x="375" y="1257" type="line"/>
      <point x="375" y="770" type="line"/>
    </contour>
  </outline>
</glyph>
<glyph name="R" format="1">
  <advance width="1001.472"/>
  <unicode hex="0052"/>
  <outline>
    <contour>
      <point x="713" y="664" type="qcurve"/>
      <point x="977" y="0" type="line"/>
      <point x="678" y="0" type="line"/>
      <point x="463" y="567" type="line"/>
      <point x="375" y="567" type="line"/>
      <point x="375" y="0" type="line"/>
      <point x="86" y="0" type="line"/>
      <point x="86" y="1475" type="line"/>
      <point x="471" y="1475" type="line" smooth="yes"/>
      <point x="686.671641791" y="1475.0"/>
      <point x="938.0" y="1256.14925373"/>
      <point x="938" y="1036" type="qcurve" smooth="yes"/>
      <point x="938.0" y="891.223880597"/>
      <point x="813.746268657" y="703.552238806"/>
    </contour>
    <contour>
      <point x="459" y="770" type="line" smooth="yes"/>
      <point x="556.76119403" y="770.0"/>
      <point x="655.0" y="896.597014925"/>
      <point x="655" y="1016" type="qcurve" smooth="yes"/>
      <point x="655.0" y="1133.91044776"/>
      <point x="554.253731343" y="1257.0"/>
      <point x="455" y="1257" type="qcurve" smooth="yes"/>
      <point x="375" y="1257" type="line"/>
      <point x="375" y="770" type="line"/>
    </contour>
  </outline>
</glyph>
<glyph name="V" format="1">
  <advance width="1069.056"/>
  <unicode hex="0056"/>
  <outline>
    <contour>
      <point x="758" y="1475" type="line"/>
      <point x="1055" y="1475" type="line"/>
      <point x="711" y="-10" type="line"/>
      <point x="365" y="-10" type="line"/>
      <point x="20" y="1475" type="line"/>
      <point x="332" y="1475" type="line"/>
      <point x="539" y="385" type="line"/>
      <point x="549" y="385" type="line"/>
    </contour>
  </outline>
</glyph>
<glyph name="W" format="1">
  <advance width="1593.344"/>
  <unicode hex="0057"/>
  <outline>
    <contour>
      <point x="1284" y="1475" type="line"/>
      <point x="1569" y="1475" type="line"/>
      <point x="1329" y="-10" type="line"/>
      <point x="967" y="-10" type="line"/>
      <point x="801" y="1090" type="line"/>
      <point x="793" y="1090" type="line"/>
      <point x="627" y="-10" type="line"/>
      <point x="264" y="-10" type="line"/>
      <point x="25" y="1475" type="line"/>
      <point x="317" y="1475" type="line"/>
      <point x="459" y="358" type="line"/>
      <point x="467" y="358" type="line"/>
      <point x="616" y="1475" type="line"/>
      <point x="983" y="1475" type="line"/>
      <point x="1135" y="358" type="line"/>
      <point x="1143" y="358" type="line"/>
    </contour>
  </outline>
</glyph>
<glyph name="Y" format="1">
  <advance width="1028.096"/>
  <unicode hex="0059"/>
  <outline>
    <contour>
      <point x="739" y="1475" type="line"/>
      <point x="1018" y="1475" type="line"/>
      <point x="664" y="588" type="line"/>
      <point x="664" y="0" type="line"/>
      <point x="367" y="0" type="line"/>
      <point x="367" y="584" type="line"/>
      <point x="10" y="1475" type="line"/>
      <point x="328" y="1475" type="line"/>
      <point x="535" y="870" type="line"/>
    </contour>
  </outline>
</glyph>
<glyph name="asciicircum" format="1">
  <advance width="870.4"/>
  <unicode hex="005E"/>
  <outline>
    <contour>
      <point x="553" y="1483" type="line"/>
      <point x="825" y="877" type="line"/>
      <point x="649" y="877" type="line"/>
      <point x="436" y="1214" type="line"/>
      <point x="223" y="877" type="line"/>
      <point x="45" y="877" type="line"/>
      <point x="317" y="1483" type="line"/>
    </contour>
  </outline>
</glyph>
<glyph name="a" format="1">
  <advance width="878.592"/>
  <unicode hex="0061"/>
  <outline>
    <contour>
      <point x="858" y="104" type="qcurve"/>
      <point x="858" y="-10" type="line"/>
      <point x="719.194029851" y="-10.0"/>
      <point x="563.358208955" y="76.3432835821"/>
      <point x="535" y="145" type="qcurve"/>
      <point x="522" y="145" type="line"/>
      <point x="482.447761194" y="80.8208955224"/>
      <point x="359.313432836" y="-12.0"/>
      <point x="272" y="-12" type="qcurve" smooth="yes"/>
      <point x="162.298507463" y="-12.0"/>
      <point x="27.0" y="138.179104478"/>
      <point x="27" y="274" type="qcurve" smooth="yes"/>
      <point x="27.0" y="429.970149254"/>
      <point x="264.746268657" y="626.373134328"/>
      <point x="514" y="651" type="qcurve"/>
      <point x="514" y="762" type="line" smooth="yes"/>
      <point x="514.0" y="829.164179104"/>
      <point x="458.223880597" y="899.0"/>
      <point x="403" y="899" type="qcurve" smooth="yes"/>
      <point x="350.014925373" y="899.0"/>
      <point x="230.597014925" y="858.014925373"/>
      <point x="150" y="811" type="qcurve"/>
      <point x="74" y="981" type="line"/>
      <point x="167.28358209" y="1036.2238806"/>
      <point x="370.313432836" y="1102.0"/>
      <point x="483" y="1102" type="qcurve" smooth="yes"/>
      <point x="643.447761194" y="1102.0"/>
      <point x="786.0" y="952.656716418"/>
      <point x="786" y="784" type="qcurve" smooth="yes"/>
      <point x="786" y="213" type="line" smooth="yes"/>
      <point x="786.0" y="159.268656716"/>
      <point x="818.447761194" y="112.208955224"/>
    </contour>
    <contour>
      <point x="406" y="166" type="qcurve" smooth="yes"/>
      <point x="435.850746269" y="166.0"/>
      <point x="489.373134328" y="199.194029851"/>
      <point x="514" y="238" type="qcurve"/>
      <point x="514" y="539" type="line"/>
      <point x="390.119402985" y="517.358208955"/>
      <point x="291.0" y="394.343283582"/>
      <point x="291" y="313" type="qcurve" smooth="yes"/>
      <point x="291.0" y="241.358208955"/>
      <point x="352.268656716" y="166.0"/>
    </contour>
  </outline>
</glyph>
<glyph name="c" format="1">
  <advance width="813.056"/>
  <unicode hex="0063"/>
  <outline>
    <contour>
      <point x="557" y="383" type="qcurve"/>
      <point x="784" y="338" type="line"/>
      <point x="760.119402985" y="167.104477612"/>
      <point x="587.940298507" y="-20.0"/>
      <point x="426" y="-20" type="qcurve" smooth="yes"/>
      <point x="249.880597015" y="-20.0"/>
      <point x="47.0" y="251.417910448"/>
      <point x="47" y="485" type="qcurve" smooth="yes"/>
      <point x="47" y="602" type="line" smooth="yes"/>
      <point x="47.0" y="835.582089552"/>
      <point x="259.611940299" y="1110.0"/>
      <point x="432" y="1110" type="qcurve" smooth="yes"/>
      <point x="596.925373134" y="1110.0"/>
      <point x="764.089552239" y="905.223880597"/>
      <point x="782" y="750" type="qcurve"/>
      <point x="545" y="705" type="line"/>
      <point x="533.805970149" y="820.671641791"/>
      <point x="483.76119403" y="920.0"/>
      <point x="436" y="920" type="qcurve" smooth="yes"/>
      <point x="383.014925373" y="920.0"/>
      <point x="324.0" y="775.23880597"/>
      <point x="324" y="623" type="qcurve" smooth="yes"/>
      <point x="324" y="469" type="line" smooth="yes"/>
      <point x="324.0" y="314.52238806"/>
      <point x="385.52238806" y="170.0"/>
      <point x="440" y="170" type="qcurve" smooth="yes"/>
      <point x="484.776119403" y="170.0"/>
      <point x="543.567164179" y="266.582089552"/>
    </contour>
  </outline>
</glyph>
<glyph name="e" format="1">
  <advance width="866.304"/>
  <unicode hex="0065"/>
  <outline>
    <contour>
      <point x="821" y="565" type="qcurve" smooth="yes"/>
      <point x="821" y="475" type="line"/>
      <point x="309" y="475" type="line"/>
      <point x="309" y="459" type="line" smooth="yes"/>
      <point x="309.0" y="316.462686567"/>
      <point x="419.223880597" y="193.0"/>
      <point x="514" y="193" type="qcurve" smooth="yes"/>
      <point x="570.71641791" y="193.0"/>
      <point x="703.820895522" y="241.208955224"/>
      <point x="768" y="283" type="qcurve"/>
      <point x="829" y="98" type="line"/>
      <point x="749.895522388" y="45.0149253731"/>
      <point x="569.208955224" y="-16.0"/>
      <point x="461" y="-16" type="qcurve" smooth="yes"/>
      <point x="268.462686567" y="-16.0"/>
      <point x="47.0" y="242.462686567"/>
      <point x="47" y="485" type="qcurve" smooth="yes"/>
      <point x="47" y="602" type="line" smooth="yes"/>
      <point x="47.0" y="837.820895522"/>
      <point x="257.164179104" y="1110.0"/>
      <point x="440" y="1110" type="qcurve" smooth="yes"/>
      <point x="623.582089552" y="1110.0"/>
      <point x="821.0" y="818.731343284"/>
    </contour>
    <contour>
      <point x="309" y="596" type="line"/>
      <point x="565" y="596" type="line"/>
      <point x="563.507462687" y="779.582089552"/>
      <point x="498.208955224" y="934.0"/>
      <point x="440" y="934" type="qcurve" smooth="yes"/>
      <point x="377.313432836" y="934.0"/>
      <point x="309.0" y="780.597014925"/>
      <point x="309" y="600" type="qcurve" smooth="yes"/>
    </contour>
  </outline>
</glyph>
<glyph name="h" format="1">
  <advance width="907.264"/>
  <unicode hex="0068"/>
  <outline>
    <contour>
      <point x="840" y="852" type="qcurve" smooth="yes"/>
      <point x="840" y="0" type="line"/>
      <point x="559" y="0" type="line"/>
      <point x="559" y="786" type="line" smooth="yes"/>
      <point x="559.0" y="839.731343284"/>
      <point x="522.791044776" y="891.0"/>
      <point x="481" y="891" type="qcurve" smooth="yes"/>
      <point x="450.402985075" y="891.0"/>
      <point x="386.089552239" y="844.52238806"/>
      <point x="354" y="799" type="qcurve"/>
      <point x="354" y="0" type="line"/>
      <point x="74" y="0" type="line"/>
      <point x="74" y="1503" type="line"/>
      <point x="354" y="1550" type="line"/>
      <point x="354" y="895" type="line"/>
      <point x="360" y="895" type="line"/>
      <point x="433.880597015" y="998.731343284"/>
      <point x="564.402985075" y="1104.0"/>
      <point x="645" y="1104" type="qcurve" smooth="yes"/>
      <point x="736.791044776" y="1104.0"/>
      <point x="840.0" y="975.880597015"/>
    </contour>
  </outline>
</glyph>
<glyph name="i" format="1">
  <advance width="442.368"/>
  <unicode hex="0069"/>
  <outline>
    <contour>
      <point x="360" y="1090" type="line"/>
      <point x="360" y="0" type="line"/>
      <point x="80" y="0" type="line"/>
      <point x="80" y="1090" type="line"/>
    </contour>
    <contour>
      <point x="367" y="1475" type="line"/>
      <point x="367" y="1247" type="line"/>
      <point x="76" y="1247" type="line"/>
      <point x="76" y="1475" type="line"/>
    </contour>
  </outline>
</glyph>
<glyph name="j" format="1">
  <advance width="442.368"/>
  <unicode hex="006A"/>
  <outline>
    <contour>
      <point x="360" y="1090" type="line"/>
      <point x="360" y="-86" type="line" smooth="yes"/>
      <point x="360.0" y="-253.910447761"/>
      <point x="208.805970149" y="-389.0"/>
      <point x="70" y="-389" type="qcurve" smooth="yes"/>
      <point x="16.2686567164" y="-389.0"/>
      <point x="-55.4328358209" y="-379.447761194"/>
      <point x="-92" y="-369" type="qcurve"/>
      <point x="-92" y="-199" type="line"/>
      <point x="-72.5970149254" y="-207.955223881"/>
      <point x="-31.6119402985" y="-215.0"/>
      <point x="-4" y="-215" type="qcurve" smooth="yes"/>
      <point x="34.0597014925" y="-215.0"/>
      <point x="80.0" y="-165.47761194"/>
      <point x="80" y="-111" type="qcurve" smooth="yes"/>
      <point x="80" y="1090" type="line"/>
    </contour>
    <contour>
      <point x="367" y="1475" type="line"/>
      <point x="367" y="1247" type="line"/>
      <point x="76" y="1247" type="line"/>
      <point x="76" y="1475" type="line"/>
    </contour>
  </outline>
</glyph>
<glyph name="o" format="1">
  <advance width="892.928"/>
  <unicode hex="006F"/>
  <outline>
    <contour>
      <point x="848" y="598" type="qcurve" smooth="yes"/>
      <point x="848" y="494" type="line" smooth="yes"/>
      <point x="848.0" y="258.179104478"/>
      <point x="634.059701493" y="-20.0"/>
      <point x="446" y="-20" type="qcurve" smooth="yes"/>
      <point x="258.686567164" y="-20.0"/>
      <point x="47.0" y="258.179104478"/>
      <point x="47" y="494" type="qcurve" smooth="yes"/>
      <point x="47" y="598" type="line" smooth="yes"/>
      <point x="47.0" y="833.074626866"/>
      <point x="260.940298507" y="1110.0"/>
      <point x="449" y="1110" type="qcurve" smooth="yes"/>
      <point x="634.820895522" y="1110.0"/>
      <point x="848.0" y="833.074626866"/>
    </contour>
    <contour>
      <point x="449" y="164" type="qcurve" smooth="yes"/>
      <point x="510.940298507" y="164.0"/>
      <point x="571.0" y="318.52238806"/>
      <point x="571" y="473" type="qcurve" smooth="yes"/>
      <point x="571" y="616" type="line" smooth="yes"/>
      <point x="571.0" y="770.47761194"/>
      <point x="508.686567164" y="926.0"/>
      <point x="446" y="926" type="qcurve" smooth="yes"/>
      <point x="383.313432836" y="926.0"/>
      <point x="324.0" y="770.47761194"/>
      <point x="324" y="616" type="qcurve" smooth="yes"/>
      <point x="324" y="473" type="line" smooth="yes"/>
      <point x="324.0" y="318.52238806"/>
      <point x="386.313432836" y="164.0"/>
    </contour>
  </outline>
</glyph>
<glyph name="s" format="1">
  <advance width="751.616"/>
  <unicode hex="0073"/>
  <outline>
    <contour>
      <point x="432" y="672" type="qcurve" smooth="yes"/>
      <point x="583.492537313" y="612.298507463"/>
      <point x="719.0" y="444.850746269"/>
      <point x="719" y="315" type="qcurve" smooth="yes"/>
      <point x="719.0" y="151.567164179"/>
      <point x="523.746268657" y="-18.0"/>
      <point x="373" y="-18" type="qcurve" smooth="yes"/>
      <point x="256.582089552" y="-18.0"/>
      <point x="78.6865671642" y="79.1940298507"/>
      <point x="16" y="168" type="qcurve"/>
      <point x="166" y="319" type="line"/>
      <point x="218.23880597" y="247.358208955"/>
      <point x="322.28358209" y="178.0"/>
      <point x="379" y="178" type="qcurve" smooth="yes"/>
      <point x="431.23880597" y="178.0"/>
      <point x="496.0" y="236.223880597"/>
      <point x="496" y="281" type="qcurve" smooth="yes"/>
      <point x="496.0" y="331.0"/>
      <point x="427.253731343" y="392.447761194"/>
      <point x="328" y="432" type="qcurve" smooth="yes"/>
      <point x="179.492537313" y="491.701492537"/>
      <point x="47.0" y="659.611940299"/>
      <point x="47" y="782" type="qcurve" smooth="yes"/>
      <point x="47.0" y="934.985074627"/>
      <point x="239.686567164" y="1110.0"/>
      <point x="377" y="1110" type="qcurve" smooth="yes"/>
      <point x="483.71641791" y="1110.0"/>
      <point x="642.537313433" y="1023.34328358"/>
      <point x="700" y="942" type="qcurve"/>
      <point x="553" y="788" type="line"/>
      <point x="503.746268657" y="854.417910448"/>
      <point x="419.507462687" y="911.0"/>
      <point x="371" y="911" type="qcurve" smooth="yes"/>
      <point x="324.731343284" y="911.0"/>
      <point x="272.0" y="856.044776119"/>
      <point x="272" y="815" type="qcurve" smooth="yes"/>
      <point x="272.0" y="770.970149254"/>
      <point x="341.701492537" y="707.074626866"/>
    </contour>
  </outline>
</glyph>
<glyph name="u" format="1">
  <advance width="907.264"/>
  <unicode hex="0075"/>
  <outline>
    <contour>
      <point x="836" y="1090" type="line"/>
      <point x="836" y="29" type="line"/>
      <point x="555" y="-16" type="line"/>
      <point x="555" y="197" type="line"/>
      <point x="549" y="197" type="line"/>
      <point x="475.865671642" y="91.0298507463"/>
      <point x="344.835820896" y="-12.0"/>
      <point x="262" y="-12" type="qcurve" smooth="yes"/>
      <point x="170.208955224" y="-12.0"/>
      <point x="68.0" y="115.611940299"/>
      <point x="68" y="238" type="qcurve" smooth="yes"/>
      <point x="68" y="1090" type="line"/>
      <point x="348" y="1090" type="line"/>
      <point x="348" y="303" type="line" smooth="yes"/>
      <point x="348.0" y="249.268656716"/>
      <point x="386.447761194" y="199.0"/>
      <point x="426" y="199" type="qcurve" smooth="yes"/>
      <point x="456.597014925" y="199.0"/>
      <point x="522.910447761" y="246.731343284"/>
      <point x="555" y="293" type="qcurve"/>
      <point x="555" y="1090" type="line"/>
    </contour>
  </outline>
</glyph>
<glyph name="y" format="1">
  <advance width="888.832"/>
  <unicode hex="0079"/>
  <outline>
    <contour>
      <point x="592" y="1090" type="line"/>
      <point x="858" y="1090" type="line"/>
      <point x="586" y="-53" type="line" smooth="yes"/>
      <point x="539.731343284" y="-242.552238806"/>
      <point x="386.805970149" y="-391.0"/>
      <point x="248" y="-391" type="qcurve" smooth="yes"/>
      <point x="176.358208955" y="-391.0"/>
      <point x="83.5373134328" y="-368.656716418"/>
      <point x="41" y="-350" type="qcurve"/>
      <point x="41" y="-164" type="line"/>
      <point x="98" y="-164" type="line"/>
      <point x="118.149253731" y="-203.552238806"/>
      <point x="166.462686567" y="-246.0"/>
      <point x="209" y="-246" type="qcurve" smooth="yes"/>
      <point x="245.567164179" y="-246.0"/>
      <point x="292.552238806" y="-207.582089552"/>
      <point x="303" y="-174" type="qcurve" smooth="yes"/>
      <point x="319" y="-119" type="line"/>
      <point x="18" y="1090" type="line"/>
      <point x="299" y="1090" type="line"/>
      <point x="446" y="236" type="line"/>
    </contour>
  </outline>
</glyph>
<glyph name="z" format="1">
  <advance width="757.76"/>
  <unicode hex="007A"/>
  <outline>
    <contour>
      <point x="721" y="193" type="line"/>
      <point x="721" y="0" type="line"/>
      <point x="33" y="0" type="line"/>
      <point x="33" y="170" type="line"/>
      <point x="416" y="891" type="line"/>
      <point x="57" y="891" type="line"/>
      <point x="57" y="1083" type="line"/>
      <point x="721" y="1083" type="line"/>
      <point x="721" y="915" type="line"/>
      <point x="338" y="193" type="line"/>
    </contour>
  </outline>
</glyph>
<glyph name="braceleft" format="1">
  <advance width="731.136"/>
  <unicode hex="007B"/>
  <outline>
    <contour>
      <point x="690" y="-41" type="line"/>
      <point x="690" y="-164" type="line"/>
      <point x="459" y="-164" type="line" smooth="yes"/>
      <point x="335.119402985" y="-164.0"/>
      <point x="207.0" y="-34.3582089552"/>
      <point x="207" y="94" type="qcurve" smooth="yes"/>
      <point x="207.0" y="159.671641791"/>
      <point x="240.0" y="327.835820896"/>
      <point x="240" y="395" type="qcurve" smooth="yes"/>
      <point x="240.0" y="503.955223881"/>
      <point x="115.537313433" y="594.0"/>
      <point x="23" y="594" type="qcurve"/>
      <point x="23" y="717" type="line"/>
      <point x="115.537313433" y="717.0"/>
      <point x="240.0" y="806.791044776"/>
      <point x="240" y="915" type="qcurve" smooth="yes"/>
      <point x="240.0" y="982.910447761"/>
      <point x="207.0" y="1150.58208955"/>
      <point x="207" y="1217" type="qcurve" smooth="yes"/>
      <point x="207.0" y="1345.35820896"/>
      <point x="335.119402985" y="1475.0"/>
      <point x="459" y="1475" type="qcurve" smooth="yes"/>
      <point x="690" y="1475" type="line"/>
      <point x="690" y="1352" type="line"/>
      <point x="573" y="1352" type="line" smooth="yes"/>
      <point x="507.328358209" y="1352.0"/>
      <point x="444.0" y="1279.88059701"/>
      <point x="444" y="1206" type="qcurve" smooth="yes"/>
      <point x="444.0" y="1153.01492537"/>
      <point x="477.0" y="990.373134328"/>
      <point x="477" y="915" type="qcurve" smooth="yes"/>
      <point x="477.0" y="797.835820896"/>
      <point x="369.656716418" y="692.358208955"/>
      <point x="301" y="664" type="qcurve"/>
      <point x="301" y="647" type="line"/>
      <point x="369.656716418" y="617.895522388"/>
      <point x="477.0" y="512.910447761"/>
      <point x="477" y="395" type="qcurve" smooth="yes"/>
      <point x="477.0" y="320.373134328"/>
      <point x="444.0" y="157.731343284"/>
      <point x="444" y="104" type="qcurve" smooth="yes"/>
      <point x="444.0" y="30.8656716418"/>
      <point x="507.328358209" y="-41.0"/>
      <point x="573" y="-41" type="qcurve" smooth="yes"/>
    </contour>
  </outline>
</glyph>
<glyph name="bar" format="1">
  <advance width="444.416"/>
  <unicode hex="007C"/>
  <outline>
    <contour>
      <point x="330" y="1561" type="line"/>
      <point x="330" y="-385" type="line"/>
      <point x="115" y="-385" type="line"/>
      <point x="115" y="1561" type="line"/>
    </contour>
  </outline>
</glyph>
<glyph name="sterling" format="1">
  <advance width="999.424"/>
  <unicode hex="00A3"/>
  <outline>
    <contour>
      <point x="805" y="453" type="qcurve"/>
      <point x="973" y="383" type="line"/>
      <point x="931.955223881" y="173.298507463"/>
      <point x="773.194029851" y="-10.0"/>
      <point x="662" y="-10" type="qcurve" smooth="yes"/>
      <point x="592.597014925" y="-10.0"/>
      <point x="447.626865672" y="55.2985074627"/>
      <point x="373" y="115" type="qcurve"/>
      <point x="314.791044776" y="62.7611940299"/>
      <point x="153.23880597" y="-1.55223880597"/>
      <point x="51" y="-12" type="qcurve"/>
      <point x="51" y="197" type="line"/>
      <point x="153.23880597" y="214.910447761"/>
      <point x="252.0" y="345.149253731"/>
      <point x="252" y="475" type="qcurve" smooth="yes"/>
      <point x="252.0" y="522.76119403"/>
      <point x="240.701492537" y="617.447761194"/>
      <point x="231" y="657" type="qcurve"/>
      <point x="49" y="657" type="line"/>
      <point x="49" y="807" type="line"/>
      <point x="193" y="807" type="line"/>
      <point x="174.343283582" y="868.194029851"/>
      <point x="139.0" y="1017.1641791"/>
      <point x="139" y="1100" type="qcurve" smooth="yes"/>
      <point x="139.0" y="1291.04477612"/>
      <point x="345.164179104" y="1499.0"/>
      <point x="528" y="1499" type="qcurve" smooth="yes"/>
      <point x="708.597014925" y="1499.0"/>
      <point x="884.776119403" y="1317.50746269"/>
      <point x="940" y="1169" type="qcurve"/>
      <point x="715" y="1065" type="line"/>
      <point x="676.940298507" y="1174.70149254"/>
      <point x="595.47761194" y="1266.0"/>
      <point x="541" y="1266" type="qcurve" smooth="yes"/>
      <point x="479.805970149" y="1266.0"/>
      <point x="410.0" y="1175.07462687"/>
      <point x="410" y="1090" type="qcurve" smooth="yes"/>
      <point x="410.0" y="1023.58208955"/>
      <point x="447.358208955" y="875.656716418"/>
      <point x="469" y="807" type="qcurve"/>
      <point x="766" y="807" type="line"/>
      <point x="766" y="657" type="line"/>
      <point x="506" y="657" type="line"/>
      <point x="511.970149254" y="615.955223881"/>
      <point x="524.0" y="520.76119403"/>
      <point x="524" y="473" type="qcurve" smooth="yes"/>
      <point x="524.0" y="419.268656716"/>
      <point x="506.164179104" y="324.552238806"/>
      <point x="489" y="285" type="qcurve"/>
      <point x="529.298507463" y="254.402985075"/>
      <point x="601.417910448" y="223.0"/>
      <point x="635" y="223" type="qcurve" smooth="yes"/>
      <point x="691.71641791" y="223.0"/>
      <point x="772.910447761" y="327.626865672"/>
    </contour>
  </outline>
</glyph>
<glyph name="dieresis" format="1">
  <advance width="813.056"/>
  <unicode hex="00A8"/>
  <outline>
    <contour>
      <point x="348" y="1421" type="line"/>
      <point x="348" y="1188" type="line"/>
      <point x="137" y="1188" type="line"/>
      <point x="137" y="1421" type="line"/>
    </contour>
    <contour>
      <point x="676" y="1421" type="line"/>
      <point x="676" y="1188" type="line"/>
      <point x="465" y="1188" type="line"/>
      <point x="465" y="1421" type="line"/>
    </contour>
  </outline>
</glyph>
<glyph name="ordfeminine" format="1">
  <advance width="620.544"/>
  <unicode hex="00AA"/>
  <outline>
    <contour>
      <point x="594" y="868" type="qcurve"/>
      <point x="594" y="791" type="line"/>
      <point x="497.731343284" y="788.76119403"/>
      <point x="392.402985075" y="840.731343284"/>
      <point x="373" y="887" type="qcurve"/>
      <point x="367" y="887" type="line"/>
      <point x="336.402985075" y="842.223880597"/>
      <point x="251.985074627" y="788.0"/>
      <point x="199" y="788" type="qcurve" smooth="yes"/>
      <point x="126.611940299" y="788.0"/>
      <point x="33.0" y="884.194029851"/>
      <point x="33" y="973" type="qcurve" smooth="yes"/>
      <point x="33.0" y="1070.76119403"/>
      <point x="192.567164179" y="1192.05970149"/>
      <point x="356" y="1204" type="qcurve"/>
      <point x="356" y="1260" type="line" smooth="yes"/>
      <point x="356.0" y="1299.55223881"/>
      <point x="322.074626866" y="1343.0"/>
      <point x="287" y="1343" type="qcurve" smooth="yes"/>
      <point x="253.417910448" y="1343.0"/>
      <point x="169.47761194" y="1318.08955224"/>
      <point x="115" y="1286" type="qcurve"/>
      <point x="63" y="1405" type="line"/>
      <point x="125.686567164" y="1440.07462687"/>
      <point x="265.373134328" y="1485.0"/>
      <point x="340" y="1485" type="qcurve" smooth="yes"/>
      <point x="448.208955224" y="1485.0"/>
      <point x="547.0" y="1387.70149254"/>
      <point x="547" y="1278" type="qcurve" smooth="yes"/>
      <point x="547" y="932" type="line" smooth="yes"/>
      <point x="547.0" y="901.402985075"/>
      <point x="566.388059701" y="872.47761194"/>
    </contour>
    <contour>
      <point x="285" y="913" type="qcurve" smooth="yes"/>
      <point x="305.895522388" y="913.0"/>
      <point x="341.074626866" y="930.089552239"/>
      <point x="356" y="948" type="qcurve"/>
      <point x="356" y="1124" type="line"/>
      <point x="278.388059701" y="1115.04477612"/>
      <point x="217.0" y="1044.76119403"/>
      <point x="217" y="997" type="qcurve" smooth="yes"/>
      <point x="217.0" y="954.462686567"/>
      <point x="254.402985075" y="913.0"/>
    </contour>
    <contour>
      <point x="580" y="700" type="line"/>
      <point x="580" y="582" type="line"/>
      <point x="45" y="582" type="line"/>
      <point x="45" y="700" type="line"/>
    </contour>
  </outline>
</glyph>
<glyph name="guillemotleft" format="1">
  <advance width="847.872"/>
  <unicode hex="00AB"/>
  <outline>
    <contour>
      <point x="291" y="545" type="line"/>
      <point x="434" y="143" type="line"/>
      <point x="293" y="143" type="line"/>
      <point x="25" y="545" type="line"/>
      <point x="293" y="946" type="line"/>
      <point x="434" y="946" type="line"/>
    </contour>
    <contour>
      <point x="655" y="545" type="line"/>
      <point x="801" y="143" type="line"/>
      <point x="657" y="143" type="line"/>
      <point x="389" y="545" type="line"/>
      <point x="657" y="946" type="line"/>
      <point x="801" y="946" type="line"/>
    </contour>
  </outline>
</glyph>
<glyph name="paragraph" format="1">
  <advance width="913.408"/>
  <unicode hex="00B6"/>
  <outline>
    <contour>
      <point x="817" y="1475" type="line"/>
      <point x="817" y="0" type="line"/>
      <point x="709" y="0" type="line"/>
      <point x="709" y="1356" type="line"/>
      <point x="559" y="1356" type="line"/>
      <point x="559" y="0" type="line"/>
      <point x="451" y="0" type="line"/>
      <point x="451" y="635" type="line"/>
      <point x="261.447761194" y="643.955223881"/>
      <point x="37.0" y="835.358208955"/>
      <point x="37" y="1057" type="qcurve" smooth="yes"/>
      <point x="37.0" y="1272.67164179"/>
      <point x="270.970149254" y="1475.0"/>
      <point x="465" y="1475" type="qcurve" smooth="yes"/>
    </contour>
  </outline>
</glyph>
<glyph name="ordmasculine" format="1">
  <advance width="622.592"/>
  <unicode hex="00BA"/>
  <outline>
    <contour>
      <point x="311" y="911" type="qcurve" smooth="yes"/>
      <point x="352.791044776" y="911.0"/>
      <point x="391.0" y="997.731343284"/>
      <point x="391" y="1094" type="qcurve" smooth="yes"/>
      <point x="391" y="1174" type="line" smooth="yes"/>
      <point x="391.0" y="1266.53731343"/>
      <point x="352.791044776" y="1358.0"/>
      <point x="311" y="1358" type="qcurve" smooth="yes"/>
      <point x="269.955223881" y="1358.0"/>
      <point x="233.0" y="1268.02985075"/>
      <point x="233" y="1174" type="qcurve"/>
      <point x="231.507462687" y="1174.0"/>
      <point x="231.507462687" y="1095.49253731"/>
      <point x="233" y="1094" type="qcurve"/>
      <point x="233.0" y="999.223880597"/>
      <point x="269.955223881" y="911.0"/>
    </contour>
    <contour>
      <point x="582" y="1161" type="qcurve" smooth="yes"/>
      <point x="582" y="1106" type="line" smooth="yes"/>
      <point x="582.0" y="954.507462687"/>
      <point x="436.373134328" y="780.0"/>
      <point x="311" y="780" type="qcurve" smooth="yes"/>
      <point x="185.626865672" y="780.0"/>
      <point x="41.0" y="954.507462687"/>
      <point x="41" y="1106" type="qcurve" smooth="yes"/>
      <point x="41" y="1161" type="line" smooth="yes"/>
      <point x="41.0" y="1312.49253731"/>
      <point x="185.626865672" y="1487.0"/>
      <point x="311" y="1487" type="qcurve" smooth="yes"/>
      <point x="436.373134328" y="1487.0"/>
      <point x="582.0" y="1312.49253731"/>
    </contour>
    <contour>
      <point x="569" y="700" type="line"/>
      <point x="569" y="582" type="line"/>
      <point x="53" y="582" type="line"/>
      <point x="53" y="700" type="line"/>
    </contour>
  </outline>
</glyph>
<glyph name="guillemotright" format="1">
  <advance width="847.872"/>
  <unicode hex="00BB"/>
  <outline>
    <contour>
      <point x="190" y="946" type="line"/>
      <point x="459" y="545" type="line"/>
      <point x="190" y="143" type="line"/>
      <point x="49" y="143" type="line"/>
      <point x="193" y="545" type="line"/>
      <point x="49" y="946" type="line"/>
    </contour>
    <contour>
      <point x="557" y="946" type="line"/>
      <point x="823" y="545" type="line"/>
      <point x="557" y="143" type="line"/>
      <point x="416" y="143" type="line"/>
      <point x="557" y="545" type="line"/>
      <point x="416" y="946" type="line"/>
    </contour>
  </outline>
</glyph>
<glyph name="Ccedilla" format="1">
  <advance width="976.896"/>
  <unicode hex="00C7"/>
  <outline>
    <contour>
      <point x="672" y="526" type="qcurve"/>
      <point x="942" y="467" type="line"/>
      <point x="914.388059701" y="233.417910448"/>
      <point x="720.820895522" y="-15.2985074627"/>
      <point x="535" y="-25" type="qcurve"/>
      <point x="496" y="-86" type="line"/>
      <point x="509.432835821" y="-83.0149253731"/>
      <point x="552.611940299" y="-76.0"/>
      <point x="575" y="-76" type="qcurve" smooth="yes"/>
      <point x="637.686567164" y="-76.0"/>
      <point x="717.0" y="-131.52238806"/>
      <point x="717" y="-186" type="qcurve" smooth="yes"/>
      <point x="717.0" y="-279.28358209"/>
      <point x="513.597014925" y="-369.47761194"/>
      <point x="283" y="-365" type="qcurve"/>
      <point x="283" y="-305" type="line"/>
      <point x="444.940298507" y="-303.507462687"/>
      <point x="569.0" y="-259.567164179"/>
      <point x="569" y="-223" type="qcurve" smooth="yes"/>
      <point x="569.0" y="-203.597014925"/>
      <point x="539.104477612" y="-182.0"/>
      <point x="510" y="-182" type="qcurve" smooth="yes"/>
      <point x="486.865671642" y="-182.0"/>
      <point x="441.641791045" y="-191.805970149"/>
      <point x="420" y="-203" type="qcurve"/>
      <point x="367" y="-162" type="line"/>
      <point x="457" y="-23" type="line"/>
      <point x="279.388059701" y="-4.34328358209"/>
      <point x="57.0" y="318.746268657"/>
      <point x="57" y="618" type="qcurve" smooth="yes"/>
      <point x="57" y="854" type="line" smooth="yes"/>
      <point x="57.0" y="1173.40298507"/>
      <point x="308.507462687" y="1499.0"/>
      <point x="510" y="1499" type="qcurve" smooth="yes"/>
      <point x="715.970149254" y="1499.0"/>
      <point x="909.880597015" y="1238.65671642"/>
      <point x="936" y="1020" type="qcurve"/>
      <point x="659" y="954" type="line"/>
      <point x="645.567164179" y="1127.13432836"/>
      <point x="578.656716418" y="1276.0"/>
      <point x="510" y="1276" type="qcurve" smooth="yes"/>
      <point x="424.179104478" y="1276.0"/>
      <point x="354.0" y="1064.88059701"/>
      <point x="354" y="891" type="qcurve" smooth="yes"/>
      <point x="354" y="586" type="line" smooth="yes"/>
      <point x="354.0" y="402.417910448"/>
      <point x="432.895522388" y="199.0"/>
      <point x="512" y="199" type="qcurve" smooth="yes"/>
      <point x="580.656716418" y="199.0"/>
      <point x="653.343283582" y="347.641791045"/>
    </contour>
  </outline>
</glyph>
<glyph name="multiply" format="1">
  <advance width="1017.856"/>
  <unicode hex="00D7"/>
  <outline>
    <contour>
      <point x="657" y="725" type="line"/>
      <point x="909" y="475" type="line"/>
      <point x="758" y="324" type="line"/>
      <point x="506" y="573" type="line"/>
      <point x="258" y="324" type="line"/>
      <point x="106" y="475" type="line"/>
      <point x="358" y="725" type="line"/>
      <point x="106" y="975" type="line"/>
      <point x="258" y="1124" type="line"/>
      <point x="506" y="874" type="line"/>
      <point x="758" y="1126" type="line"/>
      <point x="907" y="975" type="line"/>
    </contour>
  </outline>
</glyph>
<glyph name="Thorn" format="1">
  <advance width="952.32"/>
  <unicode hex="00DE"/>
  <outline>
    <contour>
      <point x="442" y="1221" type="line" smooth="yes"/>
      <point x="665.134328358" y="1221.0"/>
      <point x="924.0" y="996.119402985"/>
      <point x="924" y="770" type="qcurve" smooth="yes"/>
      <point x="924.0" y="536.417910448"/>
      <point x="666.626865672" y="295.0"/>
      <point x="442" y="295" type="qcurve" smooth="yes"/>
      <point x="377" y="295" type="line"/>
      <point x="377" y="0" type="line"/>
      <point x="86" y="0" type="line"/>
      <point x="86" y="1475" type="line"/>
      <point x="377" y="1475" type="line"/>
      <point x="377" y="1221" type="line"/>
    </contour>
    <contour>
      <point x="446" y="516" type="line" smooth="yes"/>
      <point x="546.0" y="516.0"/>
      <point x="643.0" y="644.597014925"/>
      <point x="643" y="764" type="qcurve" smooth="yes"/>
      <point x="643.0" y="881.910447761"/>
      <point x="543.492537313" y="1006.0"/>
      <point x="442" y="1006" type="qcurve" smooth="yes"/>
      <point x="375" y="1006" type="line"/>
      <point x="375" y="516" type="line"/>
    </contour>
  </outline>
</glyph>
<glyph name="ae" format="1">
  <advance width="1341.44"/>
  <unicode hex="00E6"/>
  <outline>
    <contour>
      <point x="1296" y="565" type="qcurve" smooth="yes"/>
      <point x="1296" y="475" type="line"/>
      <point x="784" y="475" type="line"/>
      <point x="784" y="459" type="line" smooth="yes"/>
      <point x="784.0" y="320.940298507"/>
      <point x="894.223880597" y="193.0"/>
      <point x="989" y="193" type="qcurve" smooth="yes"/>
      <point x="1045.71641791" y="193.0"/>
      <point x="1178.82089552" y="241.208955224"/>
      <point x="1243" y="283" type="qcurve"/>
      <point x="1305" y="98" type="line"/>
      <point x="1225.14925373" y="45.0149253731"/>
      <point x="1044.20895522" y="-16.0"/>
      <point x="936" y="-16" type="qcurve" smooth="yes"/>
      <point x="824.059701493" y="-16.0"/>
      <point x="652.776119403" y="75.6417910448"/>
      <point x="608" y="154" type="qcurve"/>
      <point x="600" y="154" type="line"/>
      <point x="543.28358209" y="75.6417910448"/>
      <point x="375.298507463" y="-12.0"/>
      <point x="285" y="-12" type="qcurve" smooth="yes"/>
      <point x="179.029850746" y="-12.0"/>
      <point x="27.0" y="126.23880597"/>
      <point x="27" y="274" type="qcurve" smooth="yes"/>
      <point x="27.0" y="429.970149254"/>
      <point x="264.746268657" y="626.373134328"/>
      <point x="514" y="651" type="qcurve"/>
      <point x="514" y="762" type="line" smooth="yes"/>
      <point x="514.0" y="829.164179104"/>
      <point x="458.223880597" y="899.0"/>
      <point x="403" y="899" type="qcurve" smooth="yes"/>
      <point x="350.014925373" y="899.0"/>
      <point x="230.597014925" y="858.014925373"/>
      <point x="150" y="811" type="qcurve"/>
      <point x="74" y="981" type="line"/>
      <point x="167.28358209" y="1036.2238806"/>
      <point x="368.791044776" y="1102.0"/>
      <point x="477" y="1102" type="qcurve" smooth="yes"/>
      <point x="576.253731343" y="1102.0"/>
      <point x="667.044776119" y="1016.97014925"/>
      <point x="676" y="961" type="qcurve"/>
      <point x="686" y="961" type="line"/>
      <point x="715.104477612" y="1025.17910448"/>
      <point x="845.641791045" y="1110.0"/>
      <point x="924" y="1110" type="qcurve" smooth="yes"/>
      <point x="1100.86567164" y="1110.0"/>
      <point x="1296.0" y="818.731343284"/>
    </contour>
    <contour>
      <point x="408" y="164" type="qcurve" smooth="yes"/>
      <point x="447.552238806" y="164.0"/>
      <point x="528.880597015" y="212.47761194"/>
      <point x="555" y="258" type="qcurve"/>
      <point x="543.059701493" y="296.059701493"/>
      <point x="524.0" y="418.626865672"/>
      <point x="524" y="494" type="qcurve" smooth="yes"/>
      <point x="524" y="541" type="line"/>
      <point x="392.656716418" y="519.358208955"/>
      <point x="291.0" y="394.343283582"/>
      <point x="291" y="313" type="qcurve" smooth="yes"/>
      <point x="291.0" y="235.388059701"/>
      <point x="360.23880597" y="164.0"/>
    </contour>
    <contour>
      <point x="784" y="596" type="line"/>
      <point x="1040" y="596" type="line"/>
      <point x="1038.50746269" y="779.582089552"/>
      <point x="973.208955224" y="934.0"/>
      <point x="915" y="934" type="qcurve" smooth="yes"/>
      <point x="852.313432836" y="934.0"/>
      <point x="784.0" y="780.597014925"/>
      <point x="784" y="600" type="qcurve" smooth="yes"/>
    </contour>
  </outline>
</glyph>
<glyph name="divide" format="1">
  <advance width="974.848"/>
  <unicode hex="00F7"/>
  <outline>
    <contour>
      <point x="487" y="463" type="qcurve" smooth="yes"/>
      <point x="552.671641791" y="463.0"/>
      <point x="643.0" y="372.164179104"/>
      <point x="643" y="305" type="qcurve" smooth="yes"/>
      <point x="643.0" y="239.328358209"/>
      <point x="552.671641791" y="152.0"/>
      <point x="487" y="152" type="qcurve" smooth="yes"/>
      <point x="419.835820896" y="152.0"/>
      <point x="332.0" y="239.328358209"/>
      <point x="332" y="305" type="qcurve" smooth="yes"/>
      <point x="332.0" y="372.164179104"/>
      <point x="419.835820896" y="463.0"/>
    </contour>
    <contour>
      <point x="487" y="1303" type="qcurve" smooth="yes"/>
      <point x="552.671641791" y="1303.0"/>
      <point x="643.0" y="1212.67164179"/>
      <point x="643" y="1147" type="qcurve" smooth="yes"/>
      <point x="643.0" y="1081.32835821"/>
      <point x="552.671641791" y="991.0"/>
      <point x="487" y="991" type="qcurve" smooth="yes"/>
      <point x="419.835820896" y="991.0"/>
      <point x="332.0" y="1081.32835821"/>
      <point x="332" y="1147" type="qcurve" smooth="yes"/>
      <point x="332.0" y="1212.67164179"/>
      <point x="419.835820896" y="1303.0"/>
    </contour>
    <contour>
      <point x="920" y="840" type="line"/>
      <point x="920" y="612" type="line"/>
      <point x="55" y="612" type="line"/>
      <point x="55" y="840" type="line"/>
    </contour>
  </outline>
</glyph>
<glyph name="thorn" format="1">
  <advance width="917.504"/>
  <unicode hex="00FE"/>
  <outline>
    <contour>
      <point x="870" y="586" type="qcurve" smooth="yes"/>
      <point x="870" y="506" type="line" smooth="yes"/>
      <point x="870.0" y="235.104477612"/>
      <point x="708.208955224" y="-16.0"/>
      <point x="600" y="-16" type="qcurve" smooth="yes"/>
      <point x="520.895522388" y="-16.0"/>
      <point x="406.268656716" y="91.1641791045"/>
      <point x="360" y="174" type="qcurve"/>
      <point x="354" y="174" type="line"/>
      <point x="354" y="-385" type="line"/>
      <point x="74" y="-385" type="line"/>
      <point x="74" y="1503" type="line"/>
      <point x="354" y="1550" type="line"/>
      <point x="354" y="905" type="line"/>
      <point x="360" y="905" type="line"/>
      <point x="406.268656716" y="993.805970149"/>
      <point x="521.402985075" y="1106.0"/>
      <point x="602" y="1106" type="qcurve" smooth="yes"/>
      <point x="712.447761194" y="1106.0"/>
      <point x="870.0" y="856.149253731"/>
    </contour>
    <contour>
      <point x="477" y="176" type="qcurve" smooth="yes"/>
      <point x="530.731343284" y="176.0"/>
      <point x="594.0" y="344.253731343"/>
      <point x="594" y="545" type="qcurve" smooth="yes"/>
      <point x="594.0" y="747.985074627"/>
      <point x="528.731343284" y="913.0"/>
      <point x="475" y="913" type="qcurve" smooth="yes"/>
      <point x="418.28358209" y="913.0"/>
      <point x="344.0" y="728.582089552"/>
      <point x="344" y="545" type="qcurve" smooth="yes"/>
      <point x="344.0" y="361.417910448"/>
      <point x="418.791044776" y="176.0"/>
    </contour>
  </outline>
</glyph>
<glyph name="Lslash" format="1">
  <advance width="882.688"/>
  <unicode hex="0141"/>
  <outline>
    <contour>
      <point x="858" y="242" type="line"/>
      <point x="858" y="0" type="line"/>
      <point x="137" y="0" type="line"/>
      <point x="137" y="578" type="line"/>
      <point x="39" y="524" type="line"/>
      <point x="39" y="776" type="line"/>
      <point x="137" y="829" type="line"/>
      <point x="137" y="1475" type="line"/>
      <point x="434" y="1475" type="line"/>
      <point x="434" y="979" type="line"/>
      <point x="635" y="1085" type="line"/>
      <point x="635" y="831" type="line"/>
      <point x="434" y="725" type="line"/>
      <point x="434" y="242" type="line"/>
    </contour>
  </outline>
</glyph>
<glyph name="lslash" format="1">
  <advance width="651.264"/>
  <unicode hex="0142"/>
  <outline>
    <contour>
      <point x="616" y="1022" type="line"/>
      <point x="616" y="778" type="line"/>
      <point x="473" y="711" type="line"/>
      <point x="473" y="0" type="line"/>
      <point x="178" y="0" type="line"/>
      <point x="178" y="596" type="line"/>
      <point x="37" y="528" type="line"/>
      <point x="37" y="772" type="line"/>
      <point x="178" y="840" type="line"/>
      <point x="178" y="1503" type="line"/>
      <point x="473" y="1550" type="line"/>
      <point x="473" y="954" type="line"/>
    </contour>
  </outline>
</glyph>
<glyph name="florin" format="1">
  <advance width="858.112"/>
  <unicode hex="0192"/>
  <outline>
    <contour>
      <point x="621" y="1487" type="qcurve" smooth="yes"/>
      <point x="692.641791045" y="1487.0"/>
      <point x="796.208955224" y="1470.68656716"/>
      <point x="838" y="1458" type="qcurve"/>
      <point x="834" y="1251" type="line"/>
      <point x="801.910447761" y="1262.19402985"/>
      <point x="740.298507463" y="1272.0"/>
      <point x="700" y="1272" type="qcurve" smooth="yes"/>
      <point x="647.014925373" y="1272.0"/>
      <point x="580.701492537" y="1206.13432836"/>
      <point x="571" y="1133" type="qcurve" smooth="yes"/>
      <point x="549" y="961" type="line"/>
      <point x="756" y="961" type="line"/>
      <point x="727" y="756" type="line"/>
      <point x="518" y="756" type="line"/>
      <point x="399" y="-82" type="line" smooth="yes"/>
      <point x="375.119402985" y="-249.910447761"/>
      <point x="194.388059701" y="-389.0"/>
      <point x="72" y="-389" type="qcurve" smooth="yes"/>
      <point x="18.2686567164" y="-389.0"/>
      <point x="-70.4179104478" y="-377.955223881"/>
      <point x="-104" y="-369" type="qcurve"/>
      <point x="-76" y="-166" type="line"/>
      <point x="-55.8507462687" y="-170.47761194"/>
      <point x="-9.37313432836" y="-176.0"/>
      <point x="16" y="-176" type="qcurve" smooth="yes"/>
      <point x="63.7611940299" y="-176.0"/>
      <point x="120.044776119" y="-122.164179104"/>
      <point x="129" y="-55" type="qcurve" smooth="yes"/>
      <point x="246" y="756" type="line"/>
      <point x="88" y="756" type="line"/>
      <point x="117" y="961" type="line"/>
      <point x="274" y="961" type="line"/>
      <point x="303" y="1165" type="line" smooth="yes"/>
      <point x="327.626865672" y="1339.62686567"/>
      <point x="492.641791045" y="1487.0"/>
    </contour>
  </outline>
</glyph>
<glyph name="caron" format="1">
  <advance width="813.056"/>
  <unicode hex="02C7"/>
  <outline>
    <contour>
      <point x="551" y="1464" type="line"/>
      <point x="680" y="1464" type="line"/>
      <point x="514" y="1188" type="line"/>
      <point x="299" y="1188" type="line"/>
      <point x="133" y="1464" type="line"/>
      <point x="260" y="1464" type="line"/>
      <point x="406" y="1331" type="line"/>
    </contour>
  </outline>
</glyph>
<glyph name="dotaccent" format="1">
  <advance width="813.056"/>
  <unicode hex="02D9"/>
  <outline>
    <contour>
      <point x="520" y="1421" type="line"/>
      <point x="520" y="1188" type="line"/>
      <point x="293" y="1188" type="line"/>
      <point x="293" y="1421" type="line"/>
    </contour>
  </outline>
</glyph>
<glyph name="ring" format="1">
  <advance width="813.056"/>
  <unicode hex="02DA"/>
  <outline>
    <contour>
      <point x="406" y="1536" type="qcurve" smooth="yes"/>
      <point x="497.044776119" y="1536.0"/>
      <point x="608.0" y="1432.11940299"/>
      <point x="608" y="1356" type="qcurve" smooth="yes"/>
      <point x="608.0" y="1276.14925373"/>
      <point x="497.044776119" y="1174.0"/>
      <point x="406" y="1174" type="qcurve" smooth="yes"/>
      <point x="315.701492537" y="1174.0"/>
      <point x="205.0" y="1276.14925373"/>
      <point x="205" y="1356" type="qcurve" smooth="yes"/>
      <point x="205.0" y="1432.11940299"/>
      <point x="315.701492537" y="1536.0"/>
    </contour>
    <contour>
      <point x="406" y="1262" type="qcurve" smooth="yes"/>
      <point x="445.552238806" y="1262.0"/>
      <point x="494.0" y="1316.44776119"/>
      <point x="494" y="1356" type="qcurve" smooth="yes"/>
      <point x="494.0" y="1395.55223881"/>
      <point x="444.059701493" y="1448.0"/>
      <point x="406" y="1448" type="qcurve" smooth="yes"/>
      <point x="367.194029851" y="1448.0"/>
      <point x="317.0" y="1395.55223881"/>
      <point x="317" y="1356" type="qcurve" smooth="yes"/>
      <point x="317.0" y="1316.44776119"/>
      <point x="367.194029851" y="1262.0"/>
    </contour>
  </outline>
</glyph>
<glyph name="tilde" format="1">
  <advance width="813.056"/>
  <unicode hex="02DC"/>
  <outline>
    <contour>
      <point x="573" y="1434" type="qcurve"/>
      <point x="690" y="1434" type="line"/>
      <point x="695.970149254" y="1308.62686567"/>
      <point x="620.074626866" y="1188.0"/>
      <point x="535" y="1188" type="qcurve" smooth="yes"/>
      <point x="455.149253731" y="1188.0"/>
      <point x="340.52238806" y="1274.0"/>
      <point x="295" y="1274" type="qcurve" smooth="yes"/>
      <point x="265.895522388" y="1274.0"/>
      <point x="241.492537313" y="1234.02985075"/>
      <point x="240" y="1190" type="qcurve"/>
      <point x="123" y="1190" type="line"/>
      <point x="115.537313433" y="1318.35820896"/>
      <point x="192.417910448" y="1438.0"/>
      <point x="276" y="1438" type="qcurve" smooth="yes"/>
      <point x="355.850746269" y="1438.0"/>
      <point x="471.970149254" y="1354.0"/>
      <point x="516" y="1354" type="qcurve" smooth="yes"/>
      <point x="545.104477612" y="1354.0"/>
      <point x="571.507462687" y="1392.20895522"/>
    </contour>
  </outline>
</glyph>
<glyph name="hungarumlaut" format="1">
  <advance width="813.056"/>
  <unicode hex="02DD"/>
  <outline>
    <contour>
      <point x="170" y="1458" type="line"/>
      <point x="444" y="1458" type="line"/>
      <point x="197" y="1188" type="line"/>
      <point x="41" y="1188" type="line"/>
    </contour>
    <contour>
      <point x="510" y="1458" type="line"/>
      <point x="786" y="1458" type="line"/>
      <point x="541" y="1188" type="line"/>
      <point x="383" y="1188" type="line"/>
    </contour>
  </outline>
</glyph>
<glyph name="endash" format="1">
  <advance width="823.296"/>
  <unicode hex="2013"/>
  <outline>
    <contour>
      <point x="770" y="702" type="line"/>
      <point x="770" y="479" type="line"/>
      <point x="53" y="479" type="line"/>
      <point x="53" y="702" type="line"/>
    </contour>
  </outline>
</glyph>
<glyph name="quoteright" format="1">
  <advance width="421.888"/>
  <unicode hex="2019"/>
  <unicode hex="02BC"/>
  <outline>
    <contour>
      <point x="109" y="1475" type="line"/>
      <point x="383" y="1475" type="line"/>
      <point x="182" y="950" type="line"/>
      <point x="57" y="950" type="line"/>
    </contour>
  </outline>
</glyph>
<glyph name="quotedblleft" format="1">
  <advance width="774.144"/>
  <unicode hex="201C"/>
  <outline>
    <contour>
      <point x="305" y="1475" type="line"/>
      <point x="358" y="950" type="line"/>
      <point x="240" y="950" type="line"/>
      <point x="41" y="1475" type="line"/>
    </contour>
    <contour>
      <point x="666" y="1475" type="line"/>
      <point x="717" y="950" type="line"/>
      <point x="598" y="950" type="line"/>
      <point x="399" y="1475" type="line"/>
    </contour>
  </outline>
</glyph>
<glyph name="quotedblright" format="1">
  <advance width="774.144"/>
  <unicode hex="201D"/>
  <outline>
    <contour>
      <point x="109" y="1475" type="line"/>
      <point x="375" y="1475" type="line"/>
      <point x="176" y="950" type="line"/>
      <point x="57" y="950" type="line"/>
    </contour>
    <contour>
      <point x="469" y="1475" type="line"/>
      <point x="735" y="1475" type="line"/>
      <point x="537" y="950" type="line"/>
      <point x="416" y="950" type="line"/>
    </contour>
  </outline>
</glyph>
<glyph name="quotedblbase" format="1">
  <advance width="774.144"/>
  <unicode hex="201E"/>
  <outline>
    <contour>
      <point x="102" y="297" type="line"/>
      <point x="369" y="297" type="line"/>
      <point x="168" y="-227" type="line"/>
      <point x="49" y="-227" type="line"/>
    </contour>
    <contour>
      <point x="461" y="297" type="line"/>
      <point x="727" y="297" type="line"/>
      <point x="528" y="-227" type="line"/>
      <point x="410" y="-227" type="line"/>
    </contour>
  </outline>
</glyph>
<glyph name="guilsinglright" format="1">
  <advance width="477.184"/>
  <unicode hex="203A"/>
  <outline>
    <contour>
      <point x="190" y="946" type="line"/>
      <point x="459" y="545" type="line"/>
      <point x="190" y="143" type="line"/>
      <point x="49" y="143" type="line"/>
      <point x="193" y="545" type="line"/>
      <point x="49" y="946" type="line"/>
    </contour>
  </outline>
</glyph>
<glyph name="uni2117" format="1">
  <advance width="1339.392"/>
  <unicode hex="2117"/>
  <outline>
    <contour>
      <point x="672" y="1499" type="qcurve" smooth="yes"/>
      <point x="936.179104478" y="1499.0"/>
      <point x="1284.0" y="1063.62686567"/>
      <point x="1284" y="739" type="qcurve" smooth="yes"/>
      <point x="1284.0" y="413.626865672"/>
      <point x="934.179104478" y="-25.0"/>
      <point x="670" y="-25" type="qcurve" smooth="yes"/>
      <point x="405.074626866" y="-25.0"/>
      <point x="57.0" y="408.134328358"/>
      <point x="57" y="735" type="qcurve" smooth="yes"/>
      <point x="57.0" y="1062.6119403"/>
      <point x="405.582089552" y="1499.0"/>
    </contour>
    <contour>
      <point x="672" y="43" type="qcurve" smooth="yes"/>
      <point x="913.044776119" y="43.0"/>
      <point x="1210.0" y="443.208955224"/>
      <point x="1210" y="735" type="qcurve" smooth="yes"/>
      <point x="1210.0" y="1026.79104478"/>
      <point x="912.537313433" y="1432.0"/>
      <point x="670" y="1432" type="qcurve" smooth="yes"/>
      <point x="426.71641791" y="1432.0"/>
      <point x="131.0" y="1030.79104478"/>
      <point x="131" y="739" type="qcurve" smooth="yes"/>
      <point x="131.0" y="447.208955224"/>
      <point x="428.71641791" y="43.0"/>
    </contour>
    <contour>
      <point x="686" y="1176" type="line" smooth="yes"/>
      <point x="818.835820896" y="1176.0"/>
      <point x="971.0" y="1039.8358209"/>
      <point x="971" y="907" type="qcurve" smooth="yes"/>
      <point x="971.0" y="768.194029851"/>
      <point x="820.328358209" y="625.0"/>
      <point x="686" y="625" type="qcurve" smooth="yes"/>
      <point x="653" y="625" type="line"/>
      <point x="653" y="311" type="line"/>
      <point x="469" y="311" type="line"/>
      <point x="469" y="1176" type="line"/>
    </contour>
    <contour>
      <point x="686" y="766" type="line" smooth="yes"/>
      <point x="741.223880597" y="766.0"/>
      <point x="795.0" y="837.328358209"/>
      <point x="795" y="903" type="qcurve" smooth="yes"/>
      <point x="795.0" y="967.179104478"/>
      <point x="739.223880597" y="1038.0"/>
      <point x="684" y="1038" type="qcurve" smooth="yes"/>
      <point x="651" y="1038" type="line"/>
      <point x="651" y="766" type="line"/>
    </contour>
  </outline>
</glyph>
<glyph name="radical" format="1">
  <advance width="1034.24"/>
  <unicode hex="221A"/>
  <outline>
    <contour>
      <point x="707" y="1475" type="line"/>
      <point x="1006" y="1475" type="line"/>
      <point x="631" y="-8" type="line"/>
      <point x="281" y="-8" type="line"/>
      <point x="31" y="696" type="line"/>
      <point x="313" y="696" type="line"/>
      <point x="449" y="252" type="line"/>
    </contour>
  </outline>
</glyph>
<glyph name="apple" format="1">
  <advance width="1024.0"/>
  <unicode hex="F8FF"/>
  <outline>
    <contour>
      <point x="598" y="446" type="line"/>
      <point x="967" y="422" type="line"/>
      <point x="877" y="150" type="line"/>
      <point x="563" y="352" type="line"/>
      <point x="657" y="0" type="line"/>
      <point x="367" y="0" type="line"/>
      <point x="461" y="352" type="line"/>
      <point x="147" y="150" type="line"/>
      <point x="57" y="422" type="line"/>
      <point x="426" y="446" type="line"/>
      <point x="109" y="729" type="line"/>
      <point x="109" y="745" type="line"/>
      <point x="426" y="1028" type="line"/>
      <point x="57" y="1053" type="line"/>
      <point x="147" y="1325" type="line"/>
      <point x="461" y="1122" type="line"/>
      <point x="367" y="1475" type="line"/>
      <point x="657" y="1475" type="line"/>
      <point x="563" y="1122" type="line"/>
      <point x="877" y="1325" type="line"/>
      <point x="967" y="1053" type="line"/>
      <point x="598" y="1028" type="line"/>
      <point x="915" y="745" type="line"/>
      <point x="915" y="729" type="line"/>
    </contour>
    <contour>
      <point x="512" y="473" type="line"/>
      <point x="662" y="737" type="line"/>
      <point x="512" y="1001" type="line"/>
      <point x="362" y="737" type="line"/>
    </contour>
  </outline>
</glyph>
